<mxfile host="app.diagrams.net" modified="2023-06-20T03:09:51.651Z" agent="Mozilla/5.0 (Windows NT 10.0; Win64; x64) AppleWebKit/537.36 (KHTML, like Gecko) Chrome/114.0.0.0 Safari/537.36" etag="kTWwSiCQGPDqFk2UbkJq" version="21.3.8" type="github">
  <diagram name="第 1 页" id="yf1SPjTQhvNKcc7fC7NG">
    <mxGraphModel dx="1942" dy="819" grid="1" gridSize="10" guides="1" tooltips="1" connect="1" arrows="1" fold="1" page="1" pageScale="1" pageWidth="827" pageHeight="1169" math="0" shadow="0">
      <root>
        <mxCell id="0" />
        <mxCell id="1" parent="0" />
        <mxCell id="3CjwRvomfNy1rH_0kNOI-1" value="管理主仓库&lt;br&gt;xdfs6-manager" style="rounded=1;whiteSpace=wrap;html=1;" vertex="1" parent="1">
          <mxGeometry x="294" y="180" width="120" height="60" as="geometry" />
        </mxCell>
        <mxCell id="3CjwRvomfNy1rH_0kNOI-2" value="被管理子仓库&lt;br&gt;xdfs6-vue" style="rounded=1;whiteSpace=wrap;html=1;" vertex="1" parent="1">
          <mxGeometry x="120" y="380" width="120" height="60" as="geometry" />
        </mxCell>
        <mxCell id="3CjwRvomfNy1rH_0kNOI-3" value="被管理子仓库&lt;br&gt;xdfs6-api" style="rounded=1;whiteSpace=wrap;html=1;" vertex="1" parent="1">
          <mxGeometry x="440" y="380" width="120" height="60" as="geometry" />
        </mxCell>
        <mxCell id="3CjwRvomfNy1rH_0kNOI-4" value="" style="endArrow=classic;html=1;rounded=0;exitX=0.5;exitY=1;exitDx=0;exitDy=0;entryX=0.5;entryY=0;entryDx=0;entryDy=0;" edge="1" parent="1" source="3CjwRvomfNy1rH_0kNOI-1" target="3CjwRvomfNy1rH_0kNOI-2">
          <mxGeometry width="50" height="50" relative="1" as="geometry">
            <mxPoint x="360" y="460" as="sourcePoint" />
            <mxPoint x="410" y="410" as="targetPoint" />
          </mxGeometry>
        </mxCell>
        <mxCell id="3CjwRvomfNy1rH_0kNOI-5" value="" style="endArrow=classic;html=1;rounded=0;exitX=0.5;exitY=1;exitDx=0;exitDy=0;entryX=0.5;entryY=0;entryDx=0;entryDy=0;" edge="1" parent="1" source="3CjwRvomfNy1rH_0kNOI-1" target="3CjwRvomfNy1rH_0kNOI-3">
          <mxGeometry width="50" height="50" relative="1" as="geometry">
            <mxPoint x="360" y="460" as="sourcePoint" />
            <mxPoint x="410" y="410" as="targetPoint" />
          </mxGeometry>
        </mxCell>
        <mxCell id="3CjwRvomfNy1rH_0kNOI-6" value="submodule" style="text;html=1;align=center;verticalAlign=middle;resizable=0;points=[];autosize=1;strokeColor=none;fillColor=none;" vertex="1" parent="1">
          <mxGeometry x="200" y="288" width="80" height="30" as="geometry" />
        </mxCell>
        <mxCell id="3CjwRvomfNy1rH_0kNOI-7" value="submodule" style="text;html=1;align=center;verticalAlign=middle;resizable=0;points=[];autosize=1;strokeColor=none;fillColor=none;" vertex="1" parent="1">
          <mxGeometry x="430" y="288" width="80" height="30" as="geometry" />
        </mxCell>
        <mxCell id="3CjwRvomfNy1rH_0kNOI-8" value="迭代开发操作流程" style="text;html=1;align=center;verticalAlign=middle;resizable=0;points=[];autosize=1;strokeColor=none;fillColor=none;" vertex="1" parent="1">
          <mxGeometry y="488" width="120" height="30" as="geometry" />
        </mxCell>
        <mxCell id="3CjwRvomfNy1rH_0kNOI-9" value="1. 个人仓库开发并合并代码" style="text;html=1;align=center;verticalAlign=middle;resizable=0;points=[];autosize=1;strokeColor=none;fillColor=none;" vertex="1" parent="1">
          <mxGeometry x="-5" y="528" width="170" height="30" as="geometry" />
        </mxCell>
        <mxCell id="3CjwRvomfNy1rH_0kNOI-10" value="2. ①" style="text;html=1;align=center;verticalAlign=middle;resizable=0;points=[];autosize=1;strokeColor=none;fillColor=none;" vertex="1" parent="1">
          <mxGeometry x="55" y="558" width="50" height="30" as="geometry" />
        </mxCell>
      </root>
    </mxGraphModel>
  </diagram>
</mxfile>
